<?xml version="1.0" encoding="UTF-8" standalone="no"?>
<svg xmlns:dc="http://purl.org/dc/elements/1.1/" xmlns:cc="http://creativecommons.org/ns#" xmlns:rdf="http://www.w3.org/1999/02/22-rdf-syntax-ns#" xmlns:svg="http://www.w3.org/2000/svg" xmlns="http://www.w3.org/2000/svg" xmlns:xlink="http://www.w3.org/1999/xlink" xmlns:sodipodi="http://sodipodi.sourceforge.net/DTD/sodipodi-0.dtd" xmlns:inkscape="http://www.inkscape.org/namespaces/inkscape" width="64px" height="64px" id="svg3067" version="1.1" inkscape:version="0.48.4 r9939" sodipodi:docname="apple TV technology mobile phone.svg">
  <defs id="defs3069">
    <linearGradient inkscape:collect="always" xlink:href="#linearGradient3900-1" id="linearGradient3906-7" x1="949.86969" y1="518.01434" x2="974.38977" y2="544.6571" gradientUnits="userSpaceOnUse" gradientTransform="matrix(1.0252359,0,0,1.0252359,-813.31819,-340.88898)"/>
    <linearGradient id="linearGradient3900-1">
      <stop style="stop-color:#24f7bc;stop-opacity:1" offset="0" id="stop3902-1"/>
      <stop style="stop-color:#24c4fc;stop-opacity:1" offset="1" id="stop3904-52"/>
    </linearGradient>
  </defs>
  <sodipodi:namedview id="base" pagecolor="#ffffff" bordercolor="#666666" borderopacity="1.0" inkscape:pageopacity="0.0" inkscape:pageshadow="2" inkscape:zoom="11.2" inkscape:cx="-5.6677103" inkscape:cy="21.500889" inkscape:document-units="px" inkscape:current-layer="g4470" showgrid="false" inkscape:window-width="1366" inkscape:window-height="705" inkscape:window-x="-8" inkscape:window-y="-8" inkscape:window-maximized="1"/>
  
  <g inkscape:label="Layer 1" inkscape:groupmode="layer" id="layer1" transform="translate(0,-1020.3622)">
    <g transform="translate(-36.84105,969.52662)" id="g4426">
      <g transform="translate(-148.49278,-37.224849)" id="g4470">
        <g transform="translate(29.083571,-99.730327)" id="g3307">
          <rect style="fill:url(#linearGradient3906-7);fill-opacity:1;stroke:none" id="rect3082-9" width="32" height="32" x="156.25026" y="187.79076" rx="6.7626715" ry="6.7626715"/>
          <path inkscape:connector-curvature="0" id="rect3793-2" d="m 169.26337,194.2327 c -1.15317,0 -2.09083,0.93764 -2.09083,2.09082 l 0,0.29869 10.15544,0 0,-0.29869 c 0,-1.15318 -0.93768,-2.09082 -2.09083,-2.09082 l -5.97378,0 z m 1.69879,1.19475 c 0.0309,-0.006 0.0625,-0.006 0.0934,0 l 2.38951,0 c 0.1578,0 0.29869,0.14087 0.29869,0.29869 0,0.15783 -0.14089,0.3009 -0.29869,0.29869 l -2.38951,0 c -0.1564,0.0245 -0.31159,-0.0863 -0.33602,-0.24265 -0.0245,-0.1564 0.0863,-0.33029 0.24268,-0.35473 z m -3.78962,1.79214 0,11.94757 10.15544,0 0,-11.94757 -10.15544,0 z m 0,12.54495 0,1.49345 c 0,1.15318 0.93766,2.09082 2.09083,2.09082 l 5.97378,0 c 1.15315,0 2.09083,-0.93764 2.09083,-2.09082 l 0,-1.49345 -10.15544,0 z m 5.07772,0.59738 c 0.49134,0 0.89607,0.40473 0.89607,0.89607 0,0.49134 -0.40473,0.89607 -0.89607,0.89607 -0.49135,0 -0.89607,-0.40473 -0.89607,-0.89607 0,-0.49134 0.40472,-0.89607 0.89607,-0.89607 z" style="font-size:medium;font-style:normal;font-variant:normal;font-weight:normal;font-stretch:normal;text-indent:0;text-align:start;text-decoration:none;line-height:normal;letter-spacing:normal;word-spacing:normal;text-transform:none;direction:ltr;block-progression:tb;writing-mode:lr-tb;text-anchor:start;baseline-shift:baseline;color:#000000;fill:#ffffff;fill-opacity:1;stroke:none;stroke-width:1;marker:none;visibility:visible;display:inline;overflow:visible;enable-background:accumulate;font-family:Sans;-inkscape-font-specification:Sans"/>
        </g>
      </g>
    </g>
  </g>

	
	
	
	<metadata>
		<rdf:RDF xmlns:rdf="http://www.w3.org/1999/02/22-rdf-syntax-ns#" xmlns:rdfs="http://www.w3.org/2000/01/rdf-schema#" xmlns:dc="http://purl.org/dc/elements/1.1/">
			<rdf:Description about="https://iconscout.com/legal#licenses" dc:title="Apple, TV, Technology, Mobile, Phone" dc:description="Apple, TV, Technology, Mobile, Phone" dc:publisher="Iconscout" dc:date="2016-12-14" dc:format="image/svg+xml" dc:language="en">
				<dc:creator>
					<rdf:Bag>
						<rdf:li>Jemis Mali</rdf:li>
					</rdf:Bag>
				</dc:creator>
			</rdf:Description>
		</rdf:RDF>
    </metadata></svg>
